<?xml version="1.0" standalone="no"?>
<!DOCTYPE svg PUBLIC "-//W3C//DTD SVG 20010904//EN"
 "http://www.w3.org/TR/2001/REC-SVG-20010904/DTD/svg10.dtd">
<svg version="1.0" xmlns="http://www.w3.org/2000/svg"
 width="1588.000000pt" height="1409.000000pt" viewBox="0 0 1588.000000 1409.000000"
 preserveAspectRatio="xMidYMid meet">

<g transform="translate(0.000000,1409.000000) scale(0.100000,-0.100000)"
fill="#000000" stroke="none">
<path d="M12955 14009 c-139 -22 -355 -93 -403 -131 -21 -17 -42 -26 -51 -23
-106 41 -485 74 -671 60 -125 -10 -119 -10 -237 9 -165 26 -236 19 -410 -39
-89 -30 -115 -43 -216 -111 -69 -47 -90 -56 -146 -63 -69 -9 -224 -78 -313
-139 -43 -29 -124 -112 -143 -146 -8 -14 -27 -19 -85 -22 -86 -6 -146 -21
-280 -71 -105 -39 -286 -134 -311 -163 -9 -10 -60 -33 -113 -51 -55 -18 -124
-50 -158 -73 -102 -68 -226 -229 -304 -391 -42 -89 -57 -109 -135 -183 -69
-66 -99 -104 -142 -180 -79 -139 -113 -211 -127 -262 -17 -63 -33 -78 -99 -86
-81 -10 -99 -19 -103 -51 l-3 -28 -115 3 c-103 3 -429 -20 -471 -33 -9 -3 -48
6 -85 21 -190 72 -253 84 -484 91 -123 3 -254 1 -326 -6 -119 -11 -123 -10
-175 13 -30 14 -99 37 -154 53 -98 27 -106 28 -355 27 -319 0 -430 -15 -469
-63 l-26 -30 -135 9 c-136 10 -294 3 -486 -22 l-91 -11 -84 36 c-176 75 -219
81 -544 82 -198 0 -307 -4 -343 -13 -52 -12 -57 -11 -141 22 -131 53 -201 67
-367 73 -230 9 -586 -28 -649 -67 -28 -17 -44 -19 -170 -13 -147 6 -320 -6
-494 -34 -99 -16 -106 -16 -150 1 -193 75 -369 96 -650 77 -97 -7 -219 -18
-271 -25 -89 -13 -99 -12 -150 6 -201 73 -408 76 -840 12 -213 -31 -207 -29
-225 -63 -13 -27 -13 -31 5 -54 11 -14 48 -39 82 -57 95 -49 388 -274 518
-397 124 -118 246 -243 410 -422 188 -205 320 -321 460 -405 120 -71 175 -95
315 -133 98 -27 105 -27 380 -27 288 1 458 17 631 60 48 12 70 13 102 5 72
-20 260 -51 395 -66 202 -23 509 -47 529 -42 10 3 53 -4 95 -15 128 -33 231
-48 363 -54 131 -6 429 8 565 27 47 7 208 10 395 9 318 -1 490 8 655 37 89 15
93 15 215 -11 152 -31 655 -86 792 -86 37 0 95 -7 130 -15 145 -33 281 -45
525 -45 l243 0 0 -30 c0 -17 7 -45 16 -62 15 -29 14 -33 -14 -97 -16 -36 -37
-106 -46 -156 -10 -49 -19 -99 -22 -110 -12 -53 -23 -294 -14 -324 8 -28 5
-42 -19 -90 -31 -60 -70 -169 -97 -266 -32 -118 -64 -257 -64 -277 0 -11 -18
-66 -39 -122 -64 -164 -99 -411 -88 -626 l6 -120 -34 -68 c-47 -93 -74 -205
-81 -347 -4 -66 -11 -128 -16 -138 -5 -10 -44 -35 -86 -55 -113 -53 -205 -107
-274 -159 -94 -72 -196 -168 -243 -230 -5 -7 -34 -17 -63 -23 -72 -13 -133
-51 -221 -134 -128 -123 -221 -266 -276 -425 -12 -36 -32 -93 -44 -125 -13
-34 -25 -95 -28 -143 -6 -76 -9 -89 -38 -123 -18 -21 -43 -71 -56 -112 -21
-65 -24 -91 -24 -233 0 -116 5 -179 17 -230 24 -97 64 -218 89 -267 26 -51 42
-107 79 -277 33 -153 80 -262 140 -327 22 -24 41 -53 44 -66 3 -13 7 -34 9
-48 3 -14 10 -38 16 -55 6 -16 13 -42 16 -58 13 -66 146 -158 313 -215 34 -12
70 -27 80 -32 9 -6 55 -23 102 -39 47 -16 117 -41 155 -56 39 -14 93 -29 120
-33 l50 -7 6 -185 c5 -147 4 -194 -8 -230 -29 -90 -34 -238 -13 -405 16 -129
27 -179 70 -305 50 -147 51 -153 37 -188 -47 -117 -51 -281 -12 -467 36 -174
115 -408 157 -466 9 -13 7 -34 -8 -95 -16 -67 -19 -111 -17 -299 1 -121 7
-251 13 -290 15 -92 15 -121 0 -175 -7 -25 -13 -99 -14 -165 0 -108 3 -133 37
-257 53 -198 129 -379 178 -423 48 -43 76 -46 85 -7 24 111 65 181 161 274 63
60 225 166 282 183 44 13 110 52 220 130 143 100 323 285 421 432 102 151 132
222 155 365 10 65 -15 247 -57 408 -52 197 -53 208 -33 256 44 106 37 293 -20
567 l-38 177 22 68 c30 89 36 176 22 303 -17 143 -58 351 -88 440 -15 43 -15
52 0 106 10 33 17 70 17 84 0 13 5 40 10 59 8 30 16 38 52 48 24 7 73 34 109
60 97 68 324 268 337 296 8 18 68 53 236 135 182 89 248 117 343 141 65 17
134 40 153 51 77 43 120 60 134 52 8 -4 45 -48 84 -98 38 -49 105 -124 148
-165 115 -108 339 -247 558 -344 36 -16 80 -52 146 -120 94 -96 160 -147 334
-254 102 -63 322 -166 378 -176 30 -5 46 -19 93 -79 78 -98 263 -273 445 -422
47 -39 91 -75 97 -82 7 -6 36 -26 63 -44 29 -19 76 -65 109 -109 107 -138 212
-227 380 -323 84 -48 155 -87 159 -87 5 0 50 -17 102 -38 52 -21 114 -44 138
-52 23 -7 69 -37 102 -65 76 -66 308 -194 425 -235 158 -56 206 -70 234 -70
21 0 47 -20 114 -89 124 -127 429 -369 582 -461 22 -14 80 -66 129 -117 49
-52 116 -114 150 -139 81 -62 302 -171 456 -227 157 -56 184 -62 220 -47 40
17 45 47 12 87 -82 101 -104 133 -140 207 -53 107 -109 258 -127 347 -8 39
-17 74 -19 78 -3 4 -12 72 -21 152 -27 247 -77 472 -155 694 -47 136 -153 345
-214 422 -108 138 -316 280 -657 449 -88 44 -115 62 -150 106 -108 131 -205
214 -395 340 -104 69 -236 153 -294 187 -85 51 -114 74 -150 123 -58 76 -193
207 -295 284 -175 133 -504 334 -547 334 -16 0 -50 20 -94 57 -129 108 -228
176 -507 347 -62 38 -89 64 -139 129 -115 152 -297 309 -548 472 -55 35 -100
68 -100 73 0 5 28 29 63 53 128 89 323 237 346 263 14 14 31 26 38 26 23 0
123 50 207 103 60 39 103 79 190 177 61 70 129 154 150 186 55 81 94 122 141
146 22 12 59 34 82 50 43 29 170 173 210 237 38 62 103 194 103 208 0 8 33 30
74 49 116 53 406 253 486 335 20 20 47 40 60 44 43 13 143 66 191 101 96 70
237 257 310 411 12 26 46 65 87 99 132 112 312 367 362 513 14 40 23 49 96 91
44 25 98 59 120 75 97 73 347 288 424 366 54 55 112 102 160 129 82 47 197
131 251 182 45 43 212 244 272 328 64 89 147 231 147 251 0 21 -38 69 -54 69
-7 0 -53 -22 -102 -49 -239 -133 -598 -197 -963 -171 -380 26 -928 -42 -1122
-139 -178 -89 -331 -240 -517 -512 -29 -42 -62 -80 -75 -86 -149 -69 -164 -80
-268 -183 -58 -58 -134 -141 -170 -184 -118 -145 -120 -146 -208 -187 -76 -35
-98 -52 -196 -152 -116 -117 -219 -252 -231 -303 -4 -17 -41 -65 -88 -114 -44
-47 -118 -131 -163 -187 -64 -80 -90 -104 -120 -113 -70 -23 -112 -49 -200
-127 -99 -86 -117 -104 -218 -223 -64 -75 -81 -89 -141 -114 -38 -16 -94 -47
-125 -68 -64 -45 -271 -259 -362 -376 -34 -43 -75 -89 -92 -101 -134 -98 -179
-134 -246 -198 -43 -41 -85 -73 -96 -73 -11 0 -38 12 -59 27 -70 48 -297 159
-405 197 -94 33 -111 43 -169 100 -78 75 -181 147 -270 188 -85 39 -211 88
-227 88 -24 0 -54 39 -48 63 3 12 7 112 9 223 3 164 7 207 21 233 56 109 75
238 82 554 l5 247 29 36 c69 87 104 269 133 686 2 33 11 56 30 79 15 17 35 48
45 68 39 77 100 353 117 529 5 53 13 82 30 105 13 18 34 48 48 68 24 35 65
144 86 226 6 24 18 46 28 51 25 13 354 -5 542 -30 137 -17 193 -20 335 -15
201 8 480 40 561 66 16 5 103 12 194 15 206 7 382 33 499 73 38 14 55 14 135
2 84 -13 476 -19 641 -11 33 2 107 0 165 -3 170 -11 542 51 668 111 19 9 87
27 152 40 133 27 300 83 344 115 24 18 45 22 135 24 120 3 295 34 456 80 28 7
88 21 135 30 130 26 345 133 429 215 22 22 58 50 79 64 64 40 144 119 171 170
22 41 34 51 84 71 76 30 141 82 293 231 151 149 174 190 181 322 4 62 11 97
25 122 58 99 64 297 18 526 -17 82 -37 170 -46 196 -15 47 -55 91 -93 103 -12
3 -27 29 -42 68 -43 119 -98 211 -187 312 -114 131 -208 218 -270 249 -28 14
-54 31 -57 37 -20 31 -158 102 -315 161 -323 121 -388 141 -471 142 -69 2 -81
5 -130 37 -60 40 -239 102 -339 118 -61 10 -177 5 -341 -15 -44 -5 -69 -2
-117 15 -80 27 -220 51 -291 50 -31 -1 -105 -10 -166 -20z m950 -116 c171 -49
220 -86 313 -237 10 -15 11 -47 7 -121 -8 -114 -16 -132 -107 -236 -31 -36
-62 -78 -68 -93 -5 -15 -14 -25 -19 -22 -11 7 -61 99 -181 331 -84 162 -149
269 -211 347 -38 47 -22 58 83 57 68 0 117 -7 183 -26z m-629 -47 c93 -12 109
-17 175 -59 222 -139 370 -335 460 -610 16 -48 38 -105 48 -126 26 -50 66
-213 80 -322 16 -125 1 -269 -29 -269 -13 0 -90 36 -141 67 -39 24 -122 113
-225 242 -11 14 -58 87 -104 161 -45 74 -91 144 -100 155 -17 20 -66 100 -150
245 -96 165 -326 417 -416 455 -35 14 -44 37 -21 52 36 23 277 28 423 9z
m-1599 -85 c90 -25 251 -88 285 -112 14 -11 29 -19 33 -19 4 0 30 -17 59 -37
140 -102 287 -234 562 -507 166 -164 324 -314 352 -333 63 -42 70 -52 46 -70
-15 -11 -46 -12 -149 -7 -136 7 -232 27 -303 63 -70 36 -319 226 -584 446
-277 229 -463 362 -609 434 -68 33 -129 61 -135 61 -6 0 -19 9 -29 20 -26 29
-13 38 101 65 82 20 117 23 201 19 56 -2 132 -13 170 -23z m573 4 c252 -18
343 -48 526 -172 180 -122 258 -189 350 -304 50 -63 101 -130 114 -149 14 -19
52 -69 85 -110 33 -41 89 -118 125 -170 35 -52 81 -115 103 -140 55 -63 66
-89 44 -104 -28 -22 -257 14 -332 52 -125 62 -172 93 -237 154 -37 35 -113
106 -170 158 -56 52 -143 137 -193 189 -266 278 -509 502 -586 542 -38 19 -64
51 -52 63 8 8 -9 8 223 -9z m2495 -154 c114 -46 267 -134 284 -163 21 -36 7
-73 -51 -134 -58 -61 -148 -108 -273 -143 -44 -12 -111 -38 -150 -57 -38 -19
-75 -34 -82 -34 -6 0 -35 -20 -65 -44 -56 -45 -130 -158 -175 -263 -22 -53
-58 -112 -77 -125 -26 -18 -32 16 -31 194 1 177 2 185 30 253 51 126 127 212
250 283 141 81 185 137 185 236 l0 39 38 -5 c20 -3 73 -20 117 -37z m-3575
-52 c41 -11 128 -47 192 -79 195 -98 298 -167 495 -332 83 -69 178 -143 210
-163 32 -21 99 -70 148 -109 50 -40 112 -85 138 -101 160 -100 241 -164 226
-180 -12 -11 -257 -16 -312 -6 -31 6 -94 28 -139 49 -46 22 -119 56 -162 76
-43 20 -120 62 -170 93 -50 32 -103 65 -118 73 -132 74 -223 133 -418 270
-151 106 -504 290 -558 290 -27 0 -56 25 -50 42 8 20 179 79 253 88 115 13
189 10 265 -11z m-540 -284 c79 -13 136 -30 285 -84 92 -34 260 -119 355 -180
47 -30 124 -74 171 -97 47 -23 124 -67 170 -96 107 -69 184 -113 284 -163 59
-30 81 -46 83 -62 3 -19 -3 -22 -45 -28 -26 -3 -67 -10 -90 -15 -124 -29 -343
6 -503 79 -82 38 -299 122 -350 136 -39 11 -114 44 -263 118 -76 37 -175 81
-220 98 -278 102 -399 141 -451 147 -39 5 -62 13 -70 24 -5 9 -8 20 -5 23 3 3
82 32 175 65 l169 59 110 -5 c61 -3 148 -12 195 -19z m4674 0 c101 -101 206
-291 206 -373 0 -41 -5 -50 -44 -88 -38 -36 -62 -48 -148 -74 -57 -18 -116
-36 -133 -42 -16 -6 -120 -12 -230 -15 -229 -4 -285 -12 -371 -52 -34 -16 -77
-32 -95 -36 -19 -4 -66 -25 -105 -46 -105 -58 -141 -48 -96 26 11 17 27 55 37
85 24 72 117 170 245 257 52 35 120 84 150 108 54 43 123 72 225 94 148 32
235 75 283 140 25 34 52 39 76 16z m-5231 -271 c48 -8 125 -28 170 -45 45 -17
107 -38 137 -48 30 -10 135 -51 233 -90 97 -39 198 -78 225 -87 38 -13 202
-78 287 -115 66 -28 193 -69 215 -69 38 0 68 -24 55 -45 -17 -28 -136 -72
-256 -95 -174 -34 -179 -33 -594 51 -77 16 -189 43 -250 60 -60 17 -166 46
-235 64 -69 18 -179 47 -245 65 -116 32 -126 33 -290 31 -93 -1 -181 -3 -195
-4 -19 -2 -26 3 -28 19 -2 16 23 48 95 120 137 138 247 189 433 204 92 7 111
5 243 -16z m5645 -404 c20 -32 34 -257 22 -337 -30 -186 -134 -258 -375 -257
-162 1 -293 34 -560 139 -165 65 -377 126 -437 125 -46 0 -30 42 26 69 23 11
67 40 97 66 79 68 142 94 261 111 57 9 133 20 170 26 45 7 108 8 190 2 157
-11 350 -10 408 3 25 5 72 24 105 41 73 37 77 37 93 12z m-2472 -45 c97 -48
183 -65 340 -65 127 0 131 -1 155 -26 39 -42 111 -90 154 -104 22 -7 49 -19
60 -26 11 -8 28 -14 38 -14 25 0 97 -42 97 -57 0 -7 -12 -15 -27 -18 -72 -15
-141 -40 -206 -76 -71 -38 -73 -39 -182 -39 -143 0 -227 -13 -336 -51 -81 -28
-93 -30 -139 -20 -109 23 -325 6 -470 -38 -39 -12 -56 -22 -59 -36 -6 -35 -22
-45 -75 -45 -28 0 -104 -13 -170 -30 l-118 -29 -87 22 c-75 19 -112 22 -286
22 -151 -1 -220 -5 -283 -18 -74 -16 -87 -16 -126 -3 -114 39 -205 49 -386 43
-96 -3 -213 -13 -260 -21 -47 -9 -86 -16 -87 -16 -1 0 -3 -12 -5 -27 l-3 -28
-120 -7 c-69 -5 -123 -4 -128 1 -6 6 6 26 29 50 34 36 50 44 119 61 147 35
211 74 455 281 30 26 73 51 95 57 22 6 63 16 90 23 28 7 102 39 165 72 l115
60 68 -11 c126 -22 296 -7 450 40 37 11 80 18 95 15 15 -2 65 -12 111 -22 74
-16 97 -16 190 -6 117 12 220 41 257 70 20 16 42 19 146 19 80 0 141 5 173 15
70 21 72 21 151 -18z m-3391 -34 c28 -5 109 -25 180 -44 72 -19 173 -43 225
-52 52 -9 153 -32 224 -51 146 -39 316 -74 362 -74 49 0 96 -20 92 -39 -6 -31
-196 -141 -323 -188 -54 -19 -369 -37 -520 -29 -356 19 -467 27 -540 41 -108
20 -366 20 -481 0 -48 -9 -114 -26 -147 -39 -49 -21 -59 -22 -64 -9 -6 17 2
34 57 122 60 95 108 151 198 234 76 70 85 75 174 100 51 15 118 31 148 36 65
11 344 6 415 -8z m4586 -381 c122 -29 247 -69 359 -115 110 -46 254 -87 455
-130 151 -32 256 -41 315 -25 91 24 110 24 110 2 0 -68 -84 -178 -165 -216
-100 -48 -270 -33 -485 40 -41 14 -84 30 -95 34 -11 5 -72 30 -135 55 -63 26
-151 62 -196 81 -115 48 -302 115 -424 153 -58 18 -123 38 -145 45 -75 24 -50
58 67 91 66 18 229 11 339 -15z m-594 -91 c86 -11 276 -66 465 -133 120 -43
403 -153 463 -181 250 -114 443 -176 585 -187 49 -4 45 -25 -15 -70 -78 -59
-139 -78 -255 -78 -149 0 -283 35 -495 128 -79 34 -424 187 -615 271 -36 16
-101 44 -145 61 -44 18 -93 38 -110 45 -16 7 -72 28 -122 45 -138 48 -126 74
44 99 83 12 112 12 200 0z m-468 -94 c251 -67 598 -213 1029 -432 320 -163
493 -236 591 -249 28 -4 56 -13 63 -21 10 -13 7 -20 -17 -39 -17 -14 -59 -39
-95 -57 -59 -29 -73 -32 -160 -32 -92 0 -160 14 -245 50 -103 44 -236 110
-335 167 -161 91 -262 145 -435 231 -145 72 -171 84 -300 142 -99 44 -333 136
-445 174 -69 24 -106 42 -108 53 -4 21 19 28 126 38 119 11 225 3 331 -25z
m-12579 5 c251 -21 414 -97 704 -330 166 -133 313 -281 467 -467 193 -235 355
-388 491 -467 59 -34 66 -45 43 -63 -14 -9 -58 -13 -164 -13 -163 0 -318 18
-431 50 -142 40 -340 147 -485 263 -63 51 -278 267 -370 372 -158 181 -420
419 -647 588 -21 15 -38 37 -38 47 0 17 9 20 78 23 165 7 241 6 352 -3z m2955
-15 c158 -22 300 -77 455 -174 62 -39 364 -265 425 -319 111 -97 280 -259 375
-357 288 -299 437 -428 578 -499 38 -19 52 -32 50 -44 -3 -15 -21 -17 -178
-16 -262 1 -452 37 -620 117 -63 30 -87 44 -200 116 -74 47 -228 187 -315 285
-84 96 -364 371 -490 482 -146 128 -260 216 -432 329 -77 51 -94 71 -76 88 12
13 327 7 428 -8z m-1859 -25 c230 -24 433 -130 749 -389 150 -123 317 -285
554 -540 126 -134 260 -256 366 -332 48 -34 60 -69 24 -69 -21 0 -57 5 -286
40 -314 48 -513 122 -748 277 -139 92 -195 140 -390 331 -201 198 -284 275
-430 402 -60 52 -119 103 -130 113 -11 10 -53 43 -93 74 -91 68 -92 86 -7 94
101 10 295 9 391 -1z m8465 -6 c9 -11 3 -22 -24 -49 -19 -19 -44 -35 -56 -35
-11 0 -60 12 -108 26 -134 39 -333 51 -564 35 -176 -13 -187 -13 -219 5 l-35
19 55 5 c30 3 254 6 497 6 359 1 445 -1 454 -12z m-3751 -49 c200 -30 358
-100 635 -284 284 -187 520 -367 738 -561 66 -58 142 -125 170 -148 29 -24 70
-60 92 -81 91 -85 282 -221 389 -276 33 -18 62 -40 64 -49 3 -14 -15 -16 -175
-16 -276 0 -451 35 -636 126 -217 107 -367 213 -592 420 -134 123 -602 506
-672 551 -16 10 -98 67 -183 128 -85 61 -168 118 -183 128 -50 32 -70 57 -57
72 14 17 271 11 410 -10z m-3603 -10 c154 -34 259 -83 404 -191 160 -119 342
-285 704 -640 245 -240 466 -419 573 -463 32 -13 47 -35 36 -53 -10 -15 -385
-3 -499 16 -185 32 -241 54 -452 179 -169 100 -253 175 -698 626 -171 174
-435 407 -537 475 -35 22 -48 38 -48 55 l0 24 223 -6 c144 -4 247 -12 294 -22z
m1740 14 c245 -22 411 -98 782 -356 156 -109 458 -361 656 -547 202 -191 373
-334 497 -416 74 -49 54 -69 -50 -52 -37 6 -96 14 -132 17 -112 11 -367 65
-458 96 -115 40 -306 135 -417 207 -100 64 -285 207 -355 272 -87 82 -356 316
-494 430 -77 63 -162 135 -189 159 -28 23 -83 67 -123 97 -80 59 -88 68 -81
89 7 17 198 20 364 4z m6773 -60 c91 -22 202 -59 290 -94 109 -45 466 -227
635 -325 88 -51 175 -101 193 -111 52 -30 75 -45 272 -175 318 -209 531 -331
647 -372 35 -12 37 -36 3 -47 -46 -14 -203 -35 -270 -35 -180 0 -343 71 -678
297 -59 39 -163 110 -232 156 -305 204 -703 431 -1015 577 -161 75 -170 79
-200 86 -40 9 -75 33 -75 50 0 28 311 23 430 -7z m1488 7 c73 -21 168 -54 217
-76 22 -10 58 -26 80 -35 22 -10 159 -77 305 -149 245 -122 326 -164 500 -261
94 -52 354 -177 433 -209 38 -15 103 -35 145 -43 84 -18 103 -28 96 -48 -8
-21 -163 -83 -238 -95 -168 -27 -412 61 -806 289 -41 24 -115 67 -165 96 -185
107 -798 425 -820 425 -3 0 -31 11 -60 25 -30 13 -66 27 -80 31 -31 8 -51 39
-33 51 40 25 336 25 426 -1z m-3799 -6 c203 -26 452 -138 846 -383 298 -185
405 -260 785 -548 236 -180 459 -326 539 -354 38 -13 53 -41 29 -56 -7 -5 -89
-9 -183 -9 -263 0 -386 27 -596 133 -155 78 -295 170 -459 302 -157 125 -257
201 -410 307 -154 107 -411 277 -485 322 -44 26 -154 92 -245 146 -207 123
-205 122 -196 145 6 17 17 18 152 11 81 -4 181 -11 223 -16z m3161 -29 c58
-18 119 -38 135 -45 17 -8 82 -36 145 -62 63 -27 126 -53 139 -59 122 -51 572
-285 692 -360 9 -5 36 -21 60 -34 24 -13 55 -32 69 -41 93 -65 419 -242 538
-293 101 -43 80 -59 -96 -76 -131 -12 -183 -8 -322 26 -199 49 -389 137 -770
358 -346 200 -500 285 -840 458 -138 70 -245 131 -245 138 0 21 64 28 235 24
138 -3 166 -7 260 -34z m-6550 -2 c141 -18 221 -44 380 -124 142 -72 175 -93
383 -249 238 -179 312 -239 635 -521 249 -217 279 -243 353 -297 41 -30 106
-73 144 -96 96 -56 116 -72 110 -83 -9 -14 -328 -10 -440 6 -152 21 -227 42
-338 91 -239 104 -397 219 -767 555 -246 223 -482 417 -708 581 -84 61 -155
115 -158 120 -3 5 -3 16 0 24 5 12 30 13 163 9 87 -3 196 -10 243 -16z m1660
7 c218 -7 311 -32 532 -145 270 -138 698 -424 1018 -680 52 -42 151 -122 220
-177 147 -118 325 -249 393 -289 88 -51 76 -79 -28 -65 -348 47 -531 81 -584
110 -9 5 -52 23 -96 40 -163 63 -474 249 -635 379 -25 20 -56 45 -70 54 -14 9
-54 40 -90 68 -62 49 -446 336 -598 448 -94 69 -138 100 -239 167 -75 50 -97
77 -78 96 3 3 27 4 53 2 26 -2 117 -6 202 -8z m2760 -61 c202 -56 440 -172
852 -414 180 -105 441 -278 636 -419 104 -76 341 -233 432 -287 36 -21 75 -45
88 -52 12 -7 22 -20 22 -28 0 -12 -15 -15 -67 -15 -216 1 -435 39 -613 107
-107 41 -345 160 -439 219 -78 49 -304 198 -441 291 -201 136 -725 466 -852
537 -89 49 -113 70 -103 86 6 10 48 11 199 7 164 -5 204 -9 286 -32z m-1674
-25 c146 -16 324 -81 508 -187 74 -42 426 -273 571 -374 33 -23 138 -101 234
-173 431 -325 608 -450 726 -511 146 -76 134 -85 -113 -85 -258 0 -369 21
-555 105 -70 32 -130 62 -133 67 -3 5 -17 13 -30 18 -58 22 -375 251 -694 502
-212 166 -665 481 -821 572 -54 31 -84 61 -75 75 8 12 240 6 382 -9z m2506
-14 c80 -20 243 -92 363 -160 11 -6 52 -29 90 -50 137 -76 578 -343 655 -397
328 -227 686 -435 836 -483 27 -9 56 -21 64 -26 56 -34 -137 -66 -350 -57
-140 5 -190 19 -377 107 -126 59 -259 141 -608 375 -149 99 -302 200 -340 224
-39 25 -92 59 -120 76 -192 122 -417 251 -575 331 -41 21 -78 42 -82 48 -23
33 -10 36 171 36 155 0 191 -3 273 -24z m-1837 -1297 c72 -12 145 -23 163 -26
39 -5 41 -19 8 -90 -34 -73 -96 -135 -169 -171 -96 -46 -488 -136 -777 -178
-25 -3 -103 -19 -174 -36 -127 -29 -205 -58 -334 -126 -35 -18 -67 -30 -73
-27 -16 10 -10 58 19 171 54 204 107 278 277 380 99 60 115 63 392 74 236 9
472 36 491 55 4 3 16 4 27 1 11 -4 79 -16 150 -27z m6299 -468 c-18 -41 -244
-268 -320 -322 -252 -180 -584 -258 -1019 -238 -267 13 -654 10 -785 -6 -69
-8 -133 -15 -142 -15 -49 0 4 73 177 242 88 87 113 105 210 153 120 60 238 93
435 122 95 14 201 17 605 19 445 1 501 3 605 21 63 12 140 30 170 41 59 21 79
15 64 -17z m-6264 -15 c23 -28 -53 -343 -103 -426 -24 -40 -72 -84 -127 -118
-86 -51 -490 -164 -760 -211 -205 -36 -442 -102 -495 -138 -29 -20 -65 -17
-65 6 0 26 74 225 112 299 42 81 123 180 190 231 59 43 171 101 293 148 112
44 552 150 742 180 51 8 111 20 135 28 57 17 63 18 78 1z m4935 -681 c160 -14
350 -8 480 14 95 17 89 -7 -28 -106 -50 -43 -106 -88 -122 -101 -174 -131
-358 -210 -574 -247 -98 -18 -466 -20 -576 -4 -38 5 -212 12 -385 15 -173 3
-316 7 -318 9 -12 12 22 57 126 162 127 128 193 171 325 212 57 17 249 48 402
65 73 8 508 -4 670 -19z m-5113 -62 c4 -22 -18 -162 -52 -325 -22 -108 -98
-200 -205 -248 -165 -74 -468 -154 -735 -195 -234 -35 -415 -88 -487 -141 -69
-52 -79 -30 -57 135 27 213 70 307 186 408 112 97 274 155 633 227 72 15 191
40 265 56 74 16 179 39 233 50 54 12 112 28 130 35 46 20 85 19 89 -2z m4203
-513 c66 -10 167 -28 225 -39 172 -32 380 -46 480 -31 126 18 125 18 125 -7 0
-13 -35 -59 -93 -122 -143 -155 -277 -230 -447 -250 -200 -24 -333 -13 -585
48 -69 16 -174 35 -235 41 -60 6 -140 15 -177 20 -37 6 -151 10 -253 10 -228
0 -230 2 -129 99 184 177 262 219 459 252 86 14 496 1 630 -21z m-4361 -326
c8 -21 -12 -253 -30 -336 -26 -127 -82 -212 -173 -261 -73 -39 -326 -130 -467
-168 -92 -24 -149 -33 -251 -38 -108 -5 -135 -10 -152 -25 -22 -20 -46 -19
-202 2 -31 4 -87 5 -125 1 -90 -8 -98 -1 -90 74 25 246 170 406 446 495 74 24
281 75 415 101 102 21 296 75 465 130 132 43 156 47 164 25z m3641 -134 c33
-5 119 -19 190 -30 72 -11 175 -29 230 -40 226 -44 374 -60 556 -60 168 0 179
-1 179 -19 0 -10 -42 -58 -93 -108 -100 -97 -218 -174 -302 -198 -59 -17 -219
-35 -302 -35 -57 1 -268 35 -388 64 -325 77 -524 111 -720 122 -144 9 -145 14
-32 122 139 135 167 153 288 187 60 17 284 14 394 -5z m-539 -425 c144 -8 293
-36 505 -93 188 -51 370 -88 494 -100 50 -5 70 -11 72 -22 3 -18 -188 -150
-279 -193 -120 -56 -196 -70 -373 -71 -182 -1 -301 15 -522 69 -141 35 -482
85 -574 85 -88 0 -78 28 55 147 50 45 107 94 125 108 75 55 214 87 341 79 30
-2 101 -6 156 -9z m-3216 -220 c16 -20 6 -280 -11 -301 -25 -30 -99 -8 -176
52 -32 25 -91 61 -130 80 -40 19 -73 38 -73 43 0 11 22 19 184 72 70 23 140
48 155 55 33 17 36 17 51 -1z m-652 -176 c179 -47 280 -95 378 -178 111 -94
149 -151 239 -351 26 -58 55 -124 66 -146 29 -65 68 -207 95 -349 36 -189 72
-339 104 -431 15 -45 25 -86 21 -92 -4 -7 -32 -20 -62 -31 -31 -10 -70 -26
-87 -35 -17 -9 -39 -16 -50 -16 -21 0 -137 90 -174 135 -101 122 -240 458
-338 815 -75 273 -117 378 -189 475 -48 64 -121 185 -121 200 0 31 17 31 118
4z m3418 -75 c130 -16 240 -45 416 -107 187 -66 388 -107 529 -107 55 0 59 -2
59 -22 0 -16 -30 -52 -92 -113 -72 -69 -111 -99 -171 -128 -119 -57 -182 -71
-332 -71 -159 0 -251 17 -452 85 -161 54 -222 68 -448 100 -121 17 -174 19
-272 14 -116 -7 -123 -6 -123 11 0 18 149 165 237 236 110 87 280 132 458 121
44 -2 130 -11 191 -19z m-3911 -114 c85 -14 220 -73 285 -126 56 -46 140 -145
167 -198 33 -64 82 -216 93 -291 6 -44 18 -100 26 -125 8 -25 20 -67 28 -95
44 -157 120 -325 188 -414 10 -13 18 -33 18 -43 0 -25 -26 -20 -125 25 -121
55 -186 95 -340 213 -240 184 -252 194 -415 355 -86 85 -182 176 -215 204 -33
27 -94 81 -135 120 -41 39 -105 90 -143 114 -84 55 -86 72 -18 123 59 44 235
122 311 137 99 20 148 20 275 1z m1262 -121 c112 -41 299 -139 361 -189 117
-95 195 -199 277 -367 41 -83 80 -172 87 -197 14 -54 8 -64 -92 -134 -71 -50
-146 -110 -233 -186 -31 -26 -62 -46 -69 -43 -7 2 -21 26 -31 53 -56 147 -78
213 -102 301 -29 108 -100 331 -121 378 -7 17 -29 71 -49 120 -20 50 -57 128
-81 176 -24 47 -44 90 -44 97 0 18 32 15 97 -9z m2157 -279 c190 -29 345 -63
456 -100 146 -49 415 -102 501 -99 66 3 74 -1 64 -30 -9 -29 -173 -177 -251
-228 -117 -75 -197 -102 -342 -114 -186 -16 -325 -2 -549 56 -98 26 -180 48
-184 50 -9 6 -178 41 -289 61 -52 9 -153 18 -224 20 -75 1 -133 7 -139 13 -23
23 255 261 377 323 92 46 134 59 221 68 135 12 159 11 359 -20z m-4119 -122
c161 -63 254 -122 399 -253 40 -36 119 -98 174 -138 55 -39 166 -119 246 -176
181 -130 183 -137 64 -174 -197 -62 -350 -72 -554 -36 -226 39 -408 93 -552
164 -157 77 -372 155 -426 155 -24 0 -56 23 -56 40 0 24 99 204 147 267 109
145 215 197 383 189 67 -3 104 -11 175 -38z m2776 -40 c22 -13 57 -33 77 -45
20 -12 53 -31 72 -42 19 -11 50 -33 69 -49 l35 -29 -35 -41 c-39 -47 -88 -75
-137 -76 -30 -1 -34 3 -58 59 -15 33 -44 98 -65 143 -22 46 -39 88 -39 93 0
16 38 10 81 -13z m729 -386 c25 -7 88 -21 140 -33 52 -11 163 -42 245 -69 196
-63 255 -76 403 -91 106 -11 122 -15 122 -31 0 -19 -232 -178 -364 -248 -294
-158 -613 -184 -941 -76 -107 36 -353 92 -570 130 -105 19 -130 26 -130 40 0
9 32 44 70 77 79 69 257 199 272 199 17 0 106 42 135 63 57 43 157 57 373 53
110 -1 220 -8 245 -14z m-3962 -286 c64 -14 162 -41 217 -61 218 -80 418 -124
563 -125 101 0 96 -40 -13 -95 -31 -15 -58 -32 -61 -37 -14 -23 -93 -62 -129
-64 -22 -1 -101 -16 -175 -33 -74 -16 -182 -35 -240 -41 -58 -6 -132 -16 -166
-21 -33 -5 -87 -9 -120 -9 -99 0 -184 -18 -217 -46 -16 -14 -39 -24 -51 -22
-20 3 -21 8 -20 138 1 193 26 281 99 355 50 50 100 72 188 84 5 1 61 -10 125
-23z m2036 -203 c127 -62 135 -70 136 -123 0 -50 -26 -153 -51 -203 -33 -63
-153 -178 -234 -222 -38 -21 -77 -44 -85 -51 -48 -41 -328 -154 -452 -184
-216 -51 -393 -126 -489 -206 -71 -59 -82 -34 -83 201 -1 204 18 278 99 376
100 120 227 189 555 303 118 41 251 90 295 110 78 35 83 36 169 30 67 -4 103
-12 140 -31z m-994 22 c0 -5 -95 -55 -105 -55 -17 0 -1 32 23 44 25 14 82 22
82 11z m1894 -116 c160 -27 358 -95 536 -184 80 -40 174 -82 210 -93 75 -24
265 -44 339 -35 42 5 52 3 57 -12 11 -28 -256 -279 -392 -368 -153 -101 -252
-134 -424 -143 -92 -5 -129 -3 -185 11 -112 28 -210 71 -284 125 -133 97 -167
121 -264 188 -164 113 -241 161 -260 161 -10 1 -20 7 -23 15 -5 12 13 129 31
213 4 16 23 28 77 47 40 15 100 40 133 56 61 31 65 31 269 38 32 1 113 -7 180
-19z m1680 -104 c29 -61 92 -232 148 -405 47 -146 84 -318 118 -557 36 -251
59 -368 96 -491 14 -48 31 -107 38 -132 7 -25 23 -64 34 -87 47 -90 22 -95
-91 -16 -320 222 -453 402 -596 807 -36 103 -93 350 -115 499 -18 124 -19 122
62 230 26 35 56 82 66 104 14 33 29 46 89 76 99 49 115 46 151 -28z m-3878
-41 c5 -27 1 -48 -15 -81 -11 -24 -21 -51 -21 -61 0 -30 -37 -79 -82 -110 -56
-38 -275 -152 -293 -152 -7 0 -46 -15 -87 -34 -101 -47 -183 -80 -247 -101
-69 -22 -122 -71 -155 -141 -35 -75 -54 -70 -83 19 -12 37 -27 113 -34 168
-14 126 -1 202 45 263 78 101 182 138 461 165 110 11 223 26 250 34 28 8 84
22 125 32 41 10 82 22 90 26 28 16 39 9 46 -27z m4137 -6 c276 -209 328 -254
408 -355 144 -181 255 -425 359 -793 36 -129 80 -339 95 -455 24 -184 107
-559 141 -642 15 -35 13 -63 -5 -63 -11 0 -122 96 -215 185 -220 211 -365 442
-476 760 -49 143 -78 246 -129 470 -67 291 -152 584 -240 824 -17 47 -31 91
-31 98 0 25 37 13 93 -29z m-4203 -493 c0 -130 -1 -136 -30 -190 -16 -30 -30
-64 -30 -75 0 -30 -45 -143 -75 -188 -36 -54 -75 -168 -75 -220 0 -23 7 -59
15 -79 16 -38 20 -73 8 -73 -5 0 -44 18 -88 40 -44 22 -85 40 -91 40 -6 0 -17
7 -24 14 -6 8 -28 20 -48 27 -78 25 -211 130 -242 190 -33 63 -54 176 -41 218
17 59 96 131 143 131 8 0 37 15 66 34 29 18 73 41 98 51 25 9 92 44 149 76 57
32 108 59 112 59 4 0 37 20 72 44 36 25 68 43 73 40 4 -3 8 -66 8 -139z m1477
108 c4 -16 7 -111 8 -213 0 -204 -4 -222 -66 -326 -58 -95 -181 -204 -344
-304 -98 -61 -313 -162 -420 -198 -166 -56 -353 -145 -427 -204 -23 -18 -30
-19 -43 -8 -13 10 -14 29 -10 109 19 320 50 415 189 560 83 86 223 175 361
229 28 11 84 36 125 55 125 58 190 87 197 87 4 0 14 6 22 14 9 8 72 44 141 81
68 37 145 84 170 106 55 47 87 51 97 12z m2004 -188 c20 -99 49 -223 63 -275
15 -52 33 -115 40 -140 7 -25 25 -71 39 -103 27 -58 34 -97 18 -97 -7 0 -121
75 -227 150 -79 56 -257 249 -292 315 -9 18 7 39 141 178 84 87 158 156 166
155 10 -2 26 -56 52 -183z m-1843 103 c20 -23 60 -56 87 -75 80 -53 94 -63
217 -155 157 -118 241 -166 318 -183 36 -8 49 -30 29 -50 -20 -21 -341 -95
-407 -95 -63 0 -160 24 -247 61 l-56 24 8 60 c4 33 7 149 7 258 -1 108 0 197
2 197 2 0 21 -19 42 -42z m3394 -210 c437 -312 560 -491 693 -1003 37 -140 83
-354 105 -480 11 -60 26 -150 35 -200 34 -194 126 -520 155 -549 6 -6 10 -20
10 -33 0 -38 -30 -28 -151 53 -261 175 -391 335 -509 629 -71 178 -81 219
-201 855 -33 170 -140 534 -200 673 -16 38 -29 75 -29 83 0 25 31 15 92 -28z
m-4922 -378 c0 -32 -40 -204 -49 -213 -30 -30 -41 118 -15 199 9 27 18 56 20
64 4 12 10 9 24 -10 11 -14 20 -32 20 -40z m5744 -154 c202 -153 311 -256 385
-366 72 -107 86 -134 139 -265 115 -287 177 -535 207 -837 9 -81 24 -191 35
-245 24 -119 85 -316 111 -359 41 -67 10 -84 -70 -37 -193 112 -342 238 -425
363 -128 190 -214 448 -237 705 -14 164 -96 542 -150 700 -37 106 -117 302
-149 365 -30 60 -33 90 -9 90 7 0 80 -51 163 -114z m-4378 -33 c4 -49 7 -146
7 -218 0 -151 -16 -204 -90 -317 -61 -92 -176 -193 -348 -302 -81 -52 -279
-142 -410 -186 -81 -28 -161 -57 -178 -66 -58 -29 -163 -103 -211 -150 -64
-61 -73 -52 -93 97 -23 179 -7 334 45 434 22 44 110 148 157 187 39 33 173
108 255 143 36 15 109 48 162 71 53 24 119 53 147 64 58 22 260 136 342 191
31 21 81 61 110 88 30 28 64 50 76 51 20 0 22 -7 29 -87z m213 38 c46 -10 88
-24 94 -30 14 -14 -6 -37 -57 -63 -23 -12 -55 -31 -72 -44 -54 -42 -59 -37
-75 70 -12 82 -7 115 14 97 7 -5 51 -19 96 -30z m5015 -677 c188 -129 286
-217 366 -330 72 -102 104 -163 169 -324 90 -225 147 -447 181 -700 18 -143
58 -332 96 -457 50 -168 50 -163 27 -163 -24 0 -257 192 -356 294 -142 146
-267 359 -342 581 -20 61 -54 187 -75 280 -67 294 -78 339 -125 501 -50 174
-100 324 -121 366 -20 39 -18 71 4 66 9 -3 89 -54 176 -114z m-5198 -142 c13
-9 32 -134 40 -267 7 -115 -9 -202 -56 -296 -113 -223 -439 -472 -795 -604
-169 -63 -242 -109 -345 -217 -42 -44 -49 -48 -62 -34 -24 24 -43 169 -43 332
l0 150 39 80 c44 90 143 197 236 255 30 20 159 87 285 151 311 156 488 274
651 436 25 24 33 26 50 14z m5921 -383 c372 -227 490 -358 611 -681 89 -236
124 -383 162 -678 20 -161 41 -283 61 -355 35 -124 86 -262 100 -270 18 -12
10 -45 -12 -45 -34 0 -262 138 -347 211 -213 183 -351 475 -427 904 -46 261
-57 316 -94 462 -37 150 -93 320 -140 426 -11 27 -21 53 -21 58 0 20 43 7 107
-32z m-5890 -451 c14 -19 32 -132 39 -250 12 -193 -26 -306 -161 -473 -103
-128 -137 -162 -250 -252 -132 -106 -184 -137 -383 -236 -162 -80 -231 -123
-319 -194 -70 -57 -77 -48 -81 92 -8 299 75 519 252 670 48 40 259 185 271
185 5 0 149 94 220 145 23 17 67 47 96 67 30 21 106 87 169 147 63 61 120 110
126 111 6 0 16 -6 21 -12z m60 -863 c7 -33 16 -125 19 -205 7 -144 7 -145 -25
-240 -18 -52 -42 -110 -53 -130 -81 -133 -240 -306 -384 -416 -90 -69 -154
-104 -375 -207 -118 -55 -211 -126 -268 -204 -46 -63 -60 -46 -90 111 -26 131
-28 280 -5 357 34 118 113 224 239 319 28 21 131 84 230 141 241 137 410 263
555 417 63 66 122 120 130 119 9 -1 19 -24 27 -62z"/>
</g>
</svg>
